<svg version="1.1" id="Layer_1" xmlns="http://www.w3.org/2000/svg" xmlns:xlink="http://www.w3.org/1999/xlink" x="0px" y="0px"
	 width="100%" viewBox="0 0 2000 2000" enable-background="new 0 0 2000 2000" xml:space="preserve">
<path fill="#FFFFFF" opacity="1.000000" stroke="none" 
	d="
M926.000000,2001.000000 
	C617.333313,2001.000000 309.166656,2001.000000 1.000000,2001.000000 
	C1.000000,1334.333374 1.000000,667.666687 1.000000,1.000000 
	C667.666687,1.000000 1334.333374,1.000000 2001.000000,1.000000 
	C2001.000000,667.666687 2001.000000,1334.333374 2001.000000,2001.000000 
	C1642.833374,2001.000000 1284.666626,2001.000000 926.000000,2001.000000 
M969.041931,692.154114 
	C967.934265,704.121582 969.733765,715.556091 974.943665,726.470642 
	C976.718994,730.189880 977.887329,734.197876 979.348877,738.067871 
	C1013.962524,829.718811 1048.596924,921.361877 1083.124878,1013.045105 
	C1084.485474,1016.657715 1086.137695,1017.994873 1090.210083,1017.959839 
	C1117.373779,1017.726074 1144.541260,1017.737610 1171.705444,1017.944702 
	C1175.898560,1017.976562 1177.654785,1016.700439 1179.069336,1012.745789 
	C1214.601562,913.412048 1250.285278,814.132507 1285.953369,714.847473 
	C1286.467163,713.417053 1287.121704,712.037109 1287.798584,710.423889 
	C1288.389282,711.115784 1288.715942,711.319519 1288.751221,711.565063 
	C1292.505005,737.763855 1296.245850,763.964539 1299.968384,790.167847 
	C1305.446777,828.730469 1310.934937,867.291748 1316.374878,905.859802 
	C1322.163574,946.899963 1328.476807,987.877625 1333.454712,1029.016479 
	C1336.676147,1055.640137 1327.632324,1074.444214 1302.095093,1085.144287 
	C1293.480713,1088.753784 1284.336548,1091.099365 1276.207886,1093.768555 
	C1360.388550,1093.768555 1445.427490,1093.768555 1531.609131,1093.768555 
	C1526.750488,1092.231445 1523.001587,1091.025757 1519.240723,1089.858521 
	C1492.396851,1081.526855 1475.547974,1064.048706 1470.372681,1036.092896 
	C1468.343872,1025.133911 1466.623657,1014.112488 1465.005859,1003.083801 
	C1459.763672,967.347351 1454.628418,931.595276 1449.462402,895.847656 
	C1443.963379,857.794006 1438.485718,819.737244 1432.981445,781.684326 
	C1427.810791,745.937805 1422.253540,710.241943 1417.586182,674.429993 
	C1415.224609,656.310120 1413.407715,637.994507 1413.206787,619.746887 
	C1412.900513,591.920959 1426.509399,573.729370 1452.577148,564.033752 
	C1455.726807,562.862244 1458.901367,561.758179 1463.068970,560.262329 
	C1387.611572,560.262329 1313.348633,560.262329 1238.937378,560.262329 
	C1199.817017,673.948730 1160.761841,787.445984 1121.263672,902.230591 
	C1081.386230,787.355042 1041.924927,673.678589 1002.462891,559.999695 
	C991.970215,559.999695 981.976685,559.942139 971.986206,560.087097 
	C970.966125,560.101929 969.963745,561.332092 968.159668,562.033997 
	C938.731934,556.608887 909.466309,549.935303 879.833679,546.088074 
	C846.035828,541.700134 811.960083,538.466675 777.914795,537.239868 
	C741.843079,535.940186 705.626709,536.701660 669.547302,538.265137 
	C646.012634,539.284973 622.464233,542.452026 599.184204,546.260376 
	C570.207153,551.000732 542.048950,559.066040 516.150818,573.549683 
	C484.041687,591.506714 462.283813,617.528503 453.848450,653.856323 
	C447.092316,682.952209 447.958588,712.024902 454.810516,740.924194 
	C462.194550,772.067749 479.372284,796.602844 505.743103,814.798767 
	C531.321594,832.447937 560.152100,841.992065 590.195862,847.827942 
	C617.778687,853.185913 645.629578,857.183289 673.393250,861.585510 
	C712.662476,867.812012 751.949341,873.929993 791.250305,879.952881 
	C809.532043,882.754517 827.736816,885.810791 844.866394,893.158569 
	C859.825195,899.575073 871.948425,908.804138 876.060608,925.713440 
	C883.217957,955.144836 869.966125,980.828552 841.501221,992.864990 
	C817.867432,1002.858704 792.824036,1004.958252 767.664124,1005.768494 
	C720.799377,1007.277710 674.087952,1004.576416 627.542053,999.110962 
	C598.615051,995.714233 569.813293,991.570435 541.835144,983.008545 
	C515.148438,974.841919 490.298248,963.226868 468.847229,945.026062 
	C462.164307,939.355652 455.416229,933.762024 448.697998,928.133240 
	C449.203522,927.511536 449.709045,926.889832 450.214569,926.268188 
	C450.214569,927.051941 450.218536,927.835693 450.213989,928.619446 
	C449.941071,975.609680 449.725525,1022.600525 449.292145,1069.589233 
	C449.254425,1073.681152 450.905396,1074.917114 454.410583,1075.922974 
	C506.765930,1090.947754 560.359009,1099.227661 614.469421,1103.640503 
	C653.782776,1106.846436 693.268127,1108.236572 732.706604,1109.528442 
	C768.699463,1110.707397 804.655090,1108.952515 840.354675,1103.879517 
	C870.910034,1099.537598 900.912231,1092.998169 929.138977,1079.892822 
	C954.349365,1068.187866 976.322205,1052.482300 992.311584,1029.314331 
	C1007.978943,1006.612793 1014.931885,981.035950 1017.001526,953.864746 
	C1017.584167,946.215576 1017.499268,938.920349 1014.544556,931.401733 
	C1002.773438,901.448120 991.126892,871.424744 980.487671,841.058167 
	C976.562500,829.855103 970.517761,821.474487 960.634033,815.469727 
	C959.211792,814.605774 957.831421,813.673218 956.425232,812.782654 
	C925.590393,793.255737 891.211060,783.926514 855.694092,778.052368 
	C825.002991,772.976440 794.257507,768.228455 763.530396,763.371399 
	C730.830566,758.202515 698.122009,753.088440 665.421265,747.925232 
	C649.275635,745.375916 633.386658,741.830139 618.434937,734.981018 
	C608.357849,730.364868 599.480835,724.099731 595.052612,713.538147 
	C586.623230,693.433655 588.165833,663.260193 621.472961,650.965332 
	C643.200806,642.944763 665.919678,641.054260 688.716797,640.169617 
	C732.566833,638.468018 776.301453,640.228149 819.854492,645.879639 
	C855.027588,650.443726 890.052612,655.752380 923.619385,667.800293 
	C939.787415,673.603333 955.388306,680.670776 969.041931,692.154114 
z"/>
<path fill="#FF5757" opacity="1.000000" stroke="none" 
	d="
M969.127991,691.263062 
	C955.388306,680.670776 939.787415,673.603333 923.619385,667.800293 
	C890.052612,655.752380 855.027588,650.443726 819.854492,645.879639 
	C776.301453,640.228149 732.566833,638.468018 688.716797,640.169617 
	C665.919678,641.054260 643.200806,642.944763 621.472961,650.965332 
	C588.165833,663.260193 586.623230,693.433655 595.052612,713.538147 
	C599.480835,724.099731 608.357849,730.364868 618.434937,734.981018 
	C633.386658,741.830139 649.275635,745.375916 665.421265,747.925232 
	C698.122009,753.088440 730.830566,758.202515 763.530396,763.371399 
	C794.257507,768.228455 825.002991,772.976440 855.694092,778.052368 
	C891.211060,783.926514 925.590393,793.255737 956.425232,812.782654 
	C957.831421,813.673218 959.211792,814.605774 960.634033,815.469727 
	C970.517761,821.474487 976.562500,829.855103 980.487671,841.058167 
	C991.126892,871.424744 1002.773438,901.448120 1014.544556,931.401733 
	C1017.499268,938.920349 1017.584167,946.215576 1017.001526,953.864746 
	C1014.931885,981.035950 1007.978943,1006.612793 992.311584,1029.314331 
	C976.322205,1052.482300 954.349365,1068.187866 929.138977,1079.892822 
	C900.912231,1092.998169 870.910034,1099.537598 840.354675,1103.879517 
	C804.655090,1108.952515 768.699463,1110.707397 732.706604,1109.528442 
	C693.268127,1108.236572 653.782776,1106.846436 614.469421,1103.640503 
	C560.359009,1099.227661 506.765930,1090.947754 454.410583,1075.922974 
	C450.905396,1074.917114 449.254425,1073.681152 449.292145,1069.589233 
	C449.725525,1022.600525 449.941071,975.609680 450.213989,928.619446 
	C450.218536,927.835693 450.214569,927.051941 450.214569,926.268188 
	C449.709045,926.889832 449.203522,927.511536 448.697998,928.133240 
	C455.416229,933.762024 462.164307,939.355652 468.847229,945.026062 
	C490.298248,963.226868 515.148438,974.841919 541.835144,983.008545 
	C569.813293,991.570435 598.615051,995.714233 627.542053,999.110962 
	C674.087952,1004.576416 720.799377,1007.277710 767.664124,1005.768494 
	C792.824036,1004.958252 817.867432,1002.858704 841.501221,992.864990 
	C869.966125,980.828552 883.217957,955.144836 876.060608,925.713440 
	C871.948425,908.804138 859.825195,899.575073 844.866394,893.158569 
	C827.736816,885.810791 809.532043,882.754517 791.250305,879.952881 
	C751.949341,873.929993 712.662476,867.812012 673.393250,861.585510 
	C645.629578,857.183289 617.778687,853.185913 590.195862,847.827942 
	C560.152100,841.992065 531.321594,832.447937 505.743103,814.798767 
	C479.372284,796.602844 462.194550,772.067749 454.810516,740.924194 
	C447.958588,712.024902 447.092316,682.952209 453.848450,653.856323 
	C462.283813,617.528503 484.041687,591.506714 516.150818,573.549683 
	C542.048950,559.066040 570.207153,551.000732 599.184204,546.260376 
	C622.464233,542.452026 646.012634,539.284973 669.547302,538.265137 
	C705.626709,536.701660 741.843079,535.940186 777.914795,537.239868 
	C811.960083,538.466675 846.035828,541.700134 879.833679,546.088074 
	C909.466309,549.935303 938.731934,556.608887 968.864258,562.237793 
	C977.727051,564.673706 985.857788,567.015076 994.057861,569.081238 
	C997.126831,569.854553 998.203918,571.209045 998.195740,574.506348 
	C998.076782,622.232666 998.116455,669.959351 998.094238,717.685974 
	C998.093811,718.653381 997.807861,719.620667 997.545776,721.280396 
	C990.127869,708.548279 980.552551,699.018555 969.127991,691.263062 
z"/>
<path fill="#1901AD" opacity="1.000000" stroke="none" 
	d="
M969.084961,691.708618 
	C980.552551,699.018555 990.127869,708.548279 997.545776,721.280396 
	C997.807861,719.620667 998.093811,718.653381 998.094238,717.685974 
	C998.116455,669.959351 998.076782,622.232666 998.195740,574.506348 
	C998.203918,571.209045 997.126831,569.854553 994.057861,569.081238 
	C985.857788,567.015076 977.727051,564.673706 969.260986,562.219971 
	C969.963745,561.332092 970.966125,560.101929 971.986206,560.087097 
	C981.976685,559.942139 991.970215,559.999695 1002.462891,559.999695 
	C1041.924927,673.678589 1081.386230,787.355042 1121.263672,902.230591 
	C1160.761841,787.445984 1199.817017,673.948730 1238.937378,560.262329 
	C1313.348633,560.262329 1387.611572,560.262329 1463.068970,560.262329 
	C1458.901367,561.758179 1455.726807,562.862244 1452.577148,564.033752 
	C1426.509399,573.729370 1412.900513,591.920959 1413.206787,619.746887 
	C1413.407715,637.994507 1415.224609,656.310120 1417.586182,674.429993 
	C1422.253540,710.241943 1427.810791,745.937805 1432.981445,781.684326 
	C1438.485718,819.737244 1443.963379,857.794006 1449.462402,895.847656 
	C1454.628418,931.595276 1459.763672,967.347351 1465.005859,1003.083801 
	C1466.623657,1014.112488 1468.343872,1025.133911 1470.372681,1036.092896 
	C1475.547974,1064.048706 1492.396851,1081.526855 1519.240723,1089.858521 
	C1523.001587,1091.025757 1526.750488,1092.231445 1531.609131,1093.768555 
	C1445.427490,1093.768555 1360.388550,1093.768555 1276.207886,1093.768555 
	C1284.336548,1091.099365 1293.480713,1088.753784 1302.095093,1085.144287 
	C1327.632324,1074.444214 1336.676147,1055.640137 1333.454712,1029.016479 
	C1328.476807,987.877625 1322.163574,946.899963 1316.374878,905.859802 
	C1310.934937,867.291748 1305.446777,828.730469 1299.968384,790.167847 
	C1296.245850,763.964539 1292.505005,737.763855 1288.751221,711.565063 
	C1288.715942,711.319519 1288.389282,711.115784 1287.798584,710.423889 
	C1287.121704,712.037109 1286.467163,713.417053 1285.953369,714.847473 
	C1250.285278,814.132507 1214.601562,913.412048 1179.069336,1012.745789 
	C1177.654785,1016.700439 1175.898560,1017.976562 1171.705444,1017.944702 
	C1144.541260,1017.737610 1117.373779,1017.726074 1090.210083,1017.959839 
	C1086.137695,1017.994873 1084.485474,1016.657715 1083.124878,1013.045105 
	C1048.596924,921.361877 1013.962524,829.718811 979.348877,738.067871 
	C977.887329,734.197876 976.718994,730.189880 974.943665,726.470642 
	C969.733765,715.556091 967.934265,704.121582 969.084961,691.708618 
z"/>
</svg>