<svg version="1.1" id="Layer_1" xmlns="http://www.w3.org/2000/svg" xmlns:xlink="http://www.w3.org/1999/xlink" x="0px" y="0px"
	 width="100%" viewBox="0 0 500 500" enable-background="new 0 0 500 500" xml:space="preserve">
<path fill="#000000" opacity="1.000000" stroke="none" 
	d="
M236.000000,501.000000 
	C157.333359,501.000000 79.166702,501.000000 1.000042,501.000000 
	C1.000028,334.333405 1.000028,167.666779 1.000014,1.000131 
	C167.666565,1.000088 334.333130,1.000088 500.999756,1.000044 
	C500.999847,167.666519 500.999847,334.333038 500.999939,500.999786 
	C412.833344,501.000000 324.666656,501.000000 236.000000,501.000000 
M296.022217,253.734756 
	C298.336426,247.523788 300.693268,241.328278 302.955994,235.098618 
	C307.683838,222.081940 312.330872,209.035889 317.078247,196.026398 
	C318.647400,191.726364 320.422699,187.501572 322.598145,181.989716 
	C323.908417,191.434494 324.955780,199.364273 326.123413,207.276291 
	C327.002014,213.229767 328.082458,219.153229 328.987732,225.103043 
	C330.261841,233.476868 331.805481,241.831253 332.565796,250.254257 
	C333.089935,256.060577 335.101074,262.436371 330.883698,267.597321 
	C328.759247,270.197083 325.320435,271.722839 321.927490,274.122040 
	C323.406738,274.535797 324.153290,274.925262 324.900757,274.927063 
	C340.730408,274.965302 356.560547,275.008820 372.389496,274.898682 
	C374.286011,274.885498 376.176361,273.990723 377.603943,273.624146 
	C374.593536,269.689148 371.124146,266.527679 369.460724,262.601166 
	C367.728424,258.512085 367.592712,253.703247 367.016266,249.176331 
	C365.570435,237.821960 364.462097,226.422028 362.866821,215.089874 
	C360.390228,197.497940 357.600189,179.950302 355.004425,162.374817 
	C354.683167,160.199524 354.487518,157.948517 354.664398,155.767517 
	C355.191833,149.264343 358.426636,144.512421 364.714783,141.511215 
	C362.450775,140.624496 360.376038,140.099136 358.298706,140.088577 
	C345.113525,140.021530 331.913300,140.438843 318.748352,139.922409 
	C312.080780,139.660828 309.883270,139.961639 307.795349,145.614227 
	C304.788544,153.754349 301.867310,161.928268 299.058197,170.138626 
	C296.138123,178.673264 293.434723,187.281815 290.563354,195.833450 
	C287.567535,204.755798 284.484344,213.648804 281.301056,222.959137 
	C280.697205,221.899094 280.104370,221.137283 279.795258,220.273926 
	C275.168884,207.351730 270.505646,194.441940 266.003937,181.476151 
	C261.842499,169.490341 257.777740,157.469025 253.856949,145.402725 
	C252.695496,141.828308 250.841766,140.153870 246.183548,141.028656 
	C243.919952,140.739029 241.651001,140.485809 239.393661,140.153687 
	C227.792191,138.446716 216.242599,136.095215 204.579880,135.181870 
	C193.777374,134.335892 182.844345,135.322083 171.988663,134.938965 
	C162.687424,134.610703 153.696198,135.955826 144.710403,138.015823 
	C127.878365,141.874542 114.957878,149.487885 112.594284,168.723267 
	C111.142281,180.539932 113.218536,191.280624 120.970963,200.249847 
	C128.854767,209.371063 140.004044,212.227066 151.439255,213.963699 
	C156.923843,214.796631 162.434082,215.470673 167.903885,216.388428 
	C176.578903,217.843964 185.253265,219.324081 193.883041,221.021820 
	C200.251312,222.274628 206.691818,223.452667 212.836334,225.468246 
	C218.995651,227.488678 221.193954,235.983398 217.834732,241.661591 
	C213.582840,248.848694 206.776901,250.770645 198.196457,251.033386 
	C189.440674,251.093079 180.684906,251.152771 171.013184,251.081238 
	C164.502487,250.401352 158.001755,249.599808 151.479080,249.066345 
	C136.870346,247.871552 123.908195,243.035202 112.569283,232.107574 
	C112.429726,243.205856 112.290169,254.304153 112.012245,266.179413 
	C112.144394,268.019867 111.470139,269.893005 114.626923,270.373596 
	C120.641846,271.289246 126.499321,273.261841 132.518402,274.122528 
	C143.286133,275.662262 154.125214,276.703186 165.288742,278.774841 
	C177.535492,278.848969 189.782211,278.938599 202.029037,278.954468 
	C202.686142,278.955292 203.344040,278.335815 204.896942,277.972137 
	C208.489151,277.635986 212.148621,277.626984 215.661484,276.904816 
	C228.290848,274.308502 240.534637,270.678711 248.697861,259.647400 
	C254.526245,251.771255 257.171417,242.695053 254.765182,233.127213 
	C253.044922,226.286926 249.808350,219.804138 246.984970,213.275742 
	C245.673935,210.244278 244.401535,206.526474 241.935257,204.812943 
	C237.675552,201.853378 232.657806,199.696548 227.663971,198.157013 
	C221.798264,196.348709 215.630600,195.496521 209.572861,194.339813 
	C200.008957,192.513626 190.434402,190.740952 180.851334,189.018066 
	C173.026718,187.611343 164.995453,186.936996 157.434662,184.672852 
	C154.133087,183.684174 150.373856,179.991577 149.312485,176.719238 
	C147.604568,171.453613 150.636078,166.729782 155.669968,164.914017 
	C159.692993,163.462891 164.010529,162.374878 168.259491,162.105301 
	C175.394043,161.652649 182.578003,161.974243 189.741165,161.978104 
	C208.431778,161.988190 226.433258,165.020493 243.018951,175.004517 
	C243.138870,177.300568 242.697144,179.809692 243.473679,181.856644 
	C247.304001,191.953583 251.498306,201.911774 255.473404,211.954834 
	C256.826202,215.372711 257.850159,218.919296 259.134460,222.366043 
	C263.113800,233.045364 267.146057,243.704987 271.065979,255.336212 
	C279.088531,255.546738 287.110901,255.769974 295.134766,255.901062 
	C295.354492,255.904648 295.590424,254.916992 296.022217,253.734756 
z"/>
<path fill="#FB5959" opacity="1.000000" stroke="none" 
	d="
M164.934464,277.952606 
	C154.125214,276.703186 143.286133,275.662262 132.518402,274.122528 
	C126.499321,273.261841 120.641846,271.289246 114.626923,270.373596 
	C111.470139,269.893005 112.144394,268.019867 112.398041,265.464722 
	C112.867706,262.925903 112.994186,261.102509 113.028236,259.277435 
	C113.195648,250.305420 113.338509,241.332932 113.490051,232.360626 
	C123.908195,243.035202 136.870346,247.871552 151.479080,249.066345 
	C158.001755,249.599808 164.502487,250.401352 171.836670,251.362503 
	C181.490082,251.501358 190.320038,251.358948 199.149979,251.216522 
	C206.776901,250.770645 213.582840,248.848694 217.834732,241.661591 
	C221.193954,235.983398 218.995651,227.488678 212.836334,225.468246 
	C206.691818,223.452667 200.251312,222.274628 193.883041,221.021820 
	C185.253265,219.324081 176.578903,217.843964 167.903885,216.388428 
	C162.434082,215.470673 156.923843,214.796631 151.439255,213.963699 
	C140.004044,212.227066 128.854767,209.371063 120.970963,200.249847 
	C113.218536,191.280624 111.142281,180.539932 112.594284,168.723267 
	C114.957878,149.487885 127.878365,141.874542 144.710403,138.015823 
	C153.696198,135.955826 162.687424,134.610703 171.988663,134.938965 
	C182.844345,135.322083 193.777374,134.335892 204.579880,135.181870 
	C216.242599,136.095215 227.792191,138.446716 239.393661,140.153687 
	C241.651001,140.485809 243.919952,140.739029 246.755615,141.423294 
	C248.222183,144.202774 249.781601,146.558411 249.887894,148.977875 
	C250.222092,156.584961 250.063904,164.216736 249.966064,171.837280 
	C249.945374,173.447922 249.371567,175.051468 249.019836,176.823364 
	C246.528656,175.708664 244.785492,174.928680 243.042328,174.148682 
	C226.433258,165.020493 208.431778,161.988190 189.741165,161.978104 
	C182.578003,161.974243 175.394043,161.652649 168.259491,162.105301 
	C164.010529,162.374878 159.692993,163.462891 155.669968,164.914017 
	C150.636078,166.729782 147.604568,171.453613 149.312485,176.719238 
	C150.373856,179.991577 154.133087,183.684174 157.434662,184.672852 
	C164.995453,186.936996 173.026718,187.611343 180.851334,189.018066 
	C190.434402,190.740952 200.008957,192.513626 209.572861,194.339813 
	C215.630600,195.496521 221.798264,196.348709 227.663971,198.157013 
	C232.657806,199.696548 237.675552,201.853378 241.935257,204.812943 
	C244.401535,206.526474 245.673935,210.244278 246.984970,213.275742 
	C249.808350,219.804138 253.044922,226.286926 254.765182,233.127213 
	C257.171417,242.695053 254.526245,251.771255 248.697861,259.647400 
	C240.534637,270.678711 228.290848,274.308502 215.661484,276.904816 
	C212.148621,277.626984 208.489151,277.635986 203.980591,277.979431 
	C190.354309,277.975342 177.644379,277.963959 164.934464,277.952606 
z"/>
<path fill="#FB7624" opacity="1.000000" stroke="none" 
	d="
M243.030640,174.576599 
	C244.785492,174.928680 246.528656,175.708664 249.019836,176.823364 
	C249.371567,175.051468 249.945374,173.447922 249.966064,171.837280 
	C250.063904,164.216736 250.222092,156.584961 249.887894,148.977875 
	C249.781601,146.558411 248.222183,144.202774 247.193970,141.498016 
	C250.841766,140.153870 252.695496,141.828308 253.856949,145.402725 
	C257.777740,157.469025 261.842499,169.490341 266.003937,181.476151 
	C270.505646,194.441940 275.168884,207.351730 279.795258,220.273926 
	C280.104370,221.137283 280.697205,221.899094 281.301056,222.959137 
	C284.484344,213.648804 287.567535,204.755798 290.563354,195.833450 
	C293.434723,187.281815 296.138123,178.673264 299.058197,170.138626 
	C301.867310,161.928268 304.788544,153.754349 307.795349,145.614227 
	C309.883270,139.961639 312.080780,139.660828 318.748352,139.922409 
	C331.913300,140.438843 345.113525,140.021530 358.298706,140.088577 
	C360.376038,140.099136 362.450775,140.624496 364.714783,141.511215 
	C358.426636,144.512421 355.191833,149.264343 354.664398,155.767517 
	C354.487518,157.948517 354.683167,160.199524 355.004425,162.374817 
	C357.600189,179.950302 360.390228,197.497940 362.866821,215.089874 
	C364.462097,226.422028 365.570435,237.821960 367.016266,249.176331 
	C367.592712,253.703247 367.728424,258.512085 369.460724,262.601166 
	C371.124146,266.527679 374.593536,269.689148 377.603943,273.624146 
	C376.176361,273.990723 374.286011,274.885498 372.389496,274.898682 
	C356.560547,275.008820 340.730408,274.965302 324.900757,274.927063 
	C324.153290,274.925262 323.406738,274.535797 321.927490,274.122040 
	C325.320435,271.722839 328.759247,270.197083 330.883698,267.597321 
	C335.101074,262.436371 333.089935,256.060577 332.565796,250.254257 
	C331.805481,241.831253 330.261841,233.476868 328.987732,225.103043 
	C328.082458,219.153229 327.002014,213.229767 326.123413,207.276291 
	C324.955780,199.364273 323.908417,191.434494 322.598145,181.989716 
	C320.422699,187.501572 318.647400,191.726364 317.078247,196.026398 
	C312.330872,209.035889 307.683838,222.081940 302.955994,235.098618 
	C300.693268,241.328278 298.336426,247.523788 295.473022,254.175049 
	C287.001801,254.534302 279.079803,254.453278 271.157806,254.372253 
	C267.146057,243.704987 263.113800,233.045364 259.134460,222.366043 
	C257.850159,218.919296 256.826202,215.372711 255.473404,211.954834 
	C251.498306,201.911774 247.304001,191.953583 243.473679,181.856644 
	C242.697144,179.809692 243.138870,177.300568 243.030640,174.576599 
z"/>
<path fill="#FFBEBF" opacity="1.000000" stroke="none" 
	d="
M165.111603,278.363708 
	C177.644379,277.963959 190.354309,277.975342 203.532898,277.995911 
	C203.344040,278.335815 202.686142,278.955292 202.029037,278.954468 
	C189.782211,278.938599 177.535492,278.848969 165.111603,278.363708 
z"/>
<path fill="#FFFFFF" opacity="1.000000" stroke="none" 
	d="
M113.029663,232.234100 
	C113.338509,241.332932 113.195648,250.305420 113.028236,259.277435 
	C112.994186,261.102509 112.867706,262.925903 112.467224,265.076233 
	C112.290169,254.304153 112.429726,243.205856 113.029663,232.234100 
z"/>
<path fill="#FFBABA" opacity="1.000000" stroke="none" 
	d="
M198.673218,251.124954 
	C190.320038,251.358948 181.490082,251.501358 172.294632,251.428116 
	C180.684906,251.152771 189.440674,251.093079 198.673218,251.124954 
z"/>
<path fill="#F5BA92" opacity="1.000000" stroke="none" 
	d="
M271.111877,254.854233 
	C279.079803,254.453278 287.001801,254.534302 295.371277,254.503448 
	C295.590424,254.916992 295.354492,255.904648 295.134766,255.901062 
	C287.110901,255.769974 279.088531,255.546738 271.111877,254.854233 
z"/>
</svg>